<svg width="24" height="24" viewBox="0 0 24 24" fill="none" xmlns="http://www.w3.org/2000/svg">
<path fill-rule="evenodd" clip-rule="evenodd" d="M10.5 1H13.5V6H10.5V1ZM10.5 18H13.5V23H10.5V18ZM6 10.5H1V13.5H6V10.5ZM18 10.5H23V13.5H18V10.5ZM6.67564 15.1807L3.14014 18.7162L5.26144 20.8375L8.79694 17.302L6.67564 15.1807ZM15.1609 6.72461L18.6964 3.18911L20.8177 5.31041L17.2822 8.84591L15.1609 6.72461ZM5.42794 3.07249L3.30664 5.19409L6.84264 8.72959L8.96394 6.60799L5.42794 3.07249ZM15.2988 17.2146L17.4201 15.093L20.9561 18.6285L18.8348 20.7501L15.2988 17.2146Z" fill="black"/>
</svg>
