<svg width="24" height="24" viewBox="0 0 24 24" fill="none" xmlns="http://www.w3.org/2000/svg">
<path d="M12 1C5.9 1 1 5.9 1 12C1 18.1 5.9 23 12 23C18.1 23 23 18.1 23 12C23 5.9 18.1 1 12 1ZM20 12C20 12.7 19.9 13.4 19.7 14C19.1 12.5 18.1 10.9 16.7 9.29999L18.5 7.5C19.5 8.8 20 10.3 20 12ZM6.5 6.5C7.8 6.5 10.1 7.29999 12.5 9.39999L9.30005 12.6C7.10005 9.80001 6.5 7.5 6.5 6.5ZM14.6001 11.5C16.9001 14.2 17.5 16.5 17.5 17.5C16.2 17.5 13.9 16.7 11.5 14.6L14.6001 11.5ZM16.5 5.39999L14.6001 7.29999C13.0001 5.89999 11.3999 4.89999 9.8999 4.29999C10.5999 4.09999 11.1999 4 11.8999 4C13.6999 4 15.2 4.49999 16.5 5.39999ZM4 12C4 11.3 4.10005 10.6 4.30005 10C4.90005 11.5 5.90005 13.1 7.30005 14.7L5.5 16.5C4.5 15.2 4 13.7 4 12ZM7.5 18.6L9.3999 16.7C10.9999 18.1 12.6001 19.1 14.1001 19.7C13.4001 19.9 12.8001 20 12.1001 20C10.3001 20 8.8 19.5 7.5 18.6Z" fill="black"/>
</svg>
