<svg width="31" height="32" viewBox="0 0 31 32" fill="none" xmlns="http://www.w3.org/2000/svg">
<path d="M24.4504 7.33337V5.33337H25.7373V1.33337H24.4504H6.43432H5.14746V5.33337H6.43432V7.33337C6.43432 11.2667 8.78928 14.6267 12.1094 16C8.78928 17.3734 6.43432 20.7334 6.43432 24.6667V26.6667H5.14746V30.6667H6.43432H24.4504H25.7373V26.6667H24.4504V24.6667C24.4504 20.7334 22.0954 17.3734 18.7753 16C22.0954 14.6267 24.4504 11.2667 24.4504 7.33337ZM20.5898 5.33337V7.33337C20.5898 8.04004 20.4483 8.72004 20.2038 9.33337H10.681C10.4365 8.72004 10.2949 8.04004 10.2949 7.33337V5.33337H20.5898ZM20.5898 24.6667V26.6667H10.2949V24.6667C10.2949 21.72 12.5984 19.3334 15.4424 19.3334C18.2863 19.3334 20.5898 21.72 20.5898 24.6667Z" fill="black"/>
<path d="M24.4504 7.33337V5.33337H25.7373V1.33337H24.4504H6.43432H5.14746V5.33337H6.43432V7.33337C6.43432 11.2667 8.78928 14.6267 12.1094 16C8.78928 17.3734 6.43432 20.7334 6.43432 24.6667V26.6667H5.14746V30.6667H6.43432H24.4504H25.7373V26.6667H24.4504V24.6667C24.4504 20.7334 22.0954 17.3734 18.7753 16C22.0954 14.6267 24.4504 11.2667 24.4504 7.33337ZM20.5898 5.33337V7.33337C20.5898 8.04004 20.4483 8.72004 20.2038 9.33337H10.681C10.4365 8.72004 10.2949 8.04004 10.2949 7.33337V5.33337H20.5898ZM20.5898 24.6667V26.6667H10.2949V24.6667C10.2949 21.72 12.5984 19.3334 15.4424 19.3334C18.2863 19.3334 20.5898 21.72 20.5898 24.6667Z" fill="black"/>
</svg>
