<svg width="24" height="24" viewBox="0 0 24 24" fill="none" xmlns="http://www.w3.org/2000/svg">
<path fill-rule="evenodd" clip-rule="evenodd" d="M16.4999 1C18.1999 1 19.7999 1.6 21.0999 2.9C23.5999 5.4 23.5999 9.6 21.0999 12.1L18.0999 15.1C16.7999 16.4 15.1999 17 13.4999 17C11.7999 17 10.1999 16.4 8.8999 15.1L7.8999 14.1L9.9999 12L10.9999 13C11.6999 13.6 12.4999 14 13.4999 14C14.4999 14 15.2999 13.7 15.9999 13L17.4999 11.5L18.9999 10C20.3999 8.6 20.3999 6.4 18.9999 5C18.2999 4.4 17.4999 4 16.4999 4C15.4999 4 14.6999 4.3 13.9999 5L13.4999 5.6C12.5999 5.2 11.4999 5 10.4999 5H9.7999L11.8999 2.9C13.1999 1.6 14.7999 1 16.4999 1ZM9.9999 19L10.4999 18.4C11.3999 18.8 12.4999 19 13.4999 19H14.1999L12.0999 21.1C10.7999 22.4 9.1999 23 7.4999 23C5.7999 23 4.1999 22.4 2.8999 21.1C0.399902 18.6 0.399902 14.4 2.8999 11.9L5.8999 8.9C7.1999 7.6 8.7999 7 10.4999 7C12.1999 7 13.7999 7.6 15.0999 8.9L16.0999 9.9L13.9999 12L12.9999 11C12.2999 10.4 11.4999 10 10.4999 10C9.4999 10 8.6999 10.3 7.9999 11L6.4999 12.5L4.9999 14C3.5999 15.4 3.5999 17.6 4.9999 19C5.6999 19.6 6.4999 20 7.4999 20C8.4999 20 9.2999 19.7 9.9999 19Z" fill="black"/>
</svg>
