<svg width="24" height="24" viewBox="0 0 24 24" fill="none" xmlns="http://www.w3.org/2000/svg">
<path fill-rule="evenodd" clip-rule="evenodd" d="M16 6C16 8.20914 14.2091 10 12 10C9.79086 10 8 8.20914 8 6C8 3.79086 9.79086 2 12 2C14.2091 2 16 3.79086 16 6ZM18 16C18 13.8 16.2 12 14 12H10C7.8 12 6 13.8 6 16V21H9V16C9 15.5 9.5 15 10 15H14C14.5 15 15 15.5 15 16V21H18V16ZM1 21V18C1 16.1 2.3 14.6 4 14.1V21H1ZM20 21V14.1C21.7 14.6 23 16.1 23 18V21H20ZM20 12C21.6569 12 23 10.6569 23 9C23 7.34315 21.6569 6 20 6C18.3431 6 17 7.34315 17 9C17 10.6569 18.3431 12 20 12ZM7 9C7 10.6569 5.65685 12 4 12C2.34315 12 1 10.6569 1 9C1 7.34315 2.34315 6 4 6C5.65685 6 7 7.34315 7 9Z" fill="black"/>
</svg>
